<mxfile host="65bd71144e">
    <diagram id="VSUx8BUvgGIgnanY2L_L" name="ページ1">
        <mxGraphModel dx="389" dy="647" grid="1" gridSize="10" guides="1" tooltips="1" connect="1" arrows="1" fold="1" page="1" pageScale="1" pageWidth="827" pageHeight="1169" math="0" shadow="0">
            <root>
                <mxCell id="0"/>
                <mxCell id="1" parent="0"/>
                <mxCell id="3" value="リバーシで学ぶ設計入門" style="swimlane;whiteSpace=wrap;html=1;fillColor=none;" vertex="1" parent="1">
                    <mxGeometry x="40" y="40" width="410" height="320" as="geometry"/>
                </mxCell>
                <mxCell id="5" value="対戦する" style="html=1;shadow=0;dashed=0;shape=mxgraph.bootstrap.rrect;rSize=5;strokeColor=none;strokeWidth=1;fillColor=#6C767D;fontColor=#FFFFFF;whiteSpace=wrap;align=center;verticalAlign=middle;spacingLeft=0;fontStyle=1;fontSize=14;spacing=5;" vertex="1" parent="3">
                    <mxGeometry x="165" y="50" width="80" height="20" as="geometry"/>
                </mxCell>
                <mxCell id="7" value="過去の対戦結果" style="rounded=1;whiteSpace=wrap;html=1;fillColor=none;" vertex="1" parent="3">
                    <mxGeometry x="70" y="100" width="300" height="170" as="geometry"/>
                </mxCell>
                <mxCell id="8" value="リバーシで学ぶ設計入門" style="swimlane;whiteSpace=wrap;html=1;fillColor=none;" vertex="1" parent="1">
                    <mxGeometry x="40" y="480" width="410" height="320" as="geometry"/>
                </mxCell>
                <mxCell id="10" value="盤面" style="rounded=1;whiteSpace=wrap;html=1;fillColor=none;" vertex="1" parent="8">
                    <mxGeometry x="50" y="80" width="300" height="170" as="geometry"/>
                </mxCell>
                <mxCell id="11" value="白の番はスキップです" style="rounded=1;whiteSpace=wrap;html=1;arcSize=50;strokeColor=none;strokeWidth=1;fillColor=#FFBC26;fontColor=#000000;whiteSpace=wrap;align=left;verticalAlign=middle;spacingLeft=0;fontStyle=1;fontSize=14;spacing=10;" vertex="1" parent="8">
                    <mxGeometry x="95" y="40" width="220" height="20" as="geometry"/>
                </mxCell>
                <mxCell id="12" value="次は黒の番です" style="html=1;shadow=0;dashed=0;shape=mxgraph.bootstrap.rrect;rSize=5;strokeColor=none;strokeWidth=1;fillColor=#F8F9FA;fontColor=#000000;whiteSpace=wrap;align=center;verticalAlign=middle;spacingLeft=0;fontStyle=0;fontSize=16;spacing=5;" vertex="1" parent="8">
                    <mxGeometry x="95" y="260" width="215" height="40" as="geometry"/>
                </mxCell>
            </root>
        </mxGraphModel>
    </diagram>
</mxfile>
